<svg width="12" height="18" viewBox="0 0 12 18" fill="none" xmlns="http://www.w3.org/2000/svg">
<path d="M0.540763 9.66077C0.0810128 10.5645 0.603013 10.9965 1.79401 11.7345C2.80651 12.36 4.20526 12.5888 5.10376 12.6803C4.73551 13.0343 6.42301 11.4113 1.56301 16.086C0.532513 17.0738 2.19151 18.6585 3.22126 17.6918L6.00901 15.003C7.07626 16.0298 8.09926 17.0138 8.79676 17.6955C9.82726 18.666 11.4855 17.0948 10.4663 16.0898C10.3898 16.017 6.68851 12.4665 6.91426 12.684C7.82401 12.5925 9.20176 12.3503 10.2023 11.7383L10.2015 11.7375C11.3925 10.9958 11.9145 10.5645 11.4615 9.66077C11.1878 9.14777 10.4498 8.71877 9.46726 9.46052C9.46726 9.46052 8.14051 10.4768 6.00076 10.4768C3.86026 10.4768 2.53426 9.46052 2.53426 9.46052C1.55251 8.71502 0.811513 9.14777 0.540763 9.66077Z" fill="#E08641"/>
<path d="M6.001 9.10649C8.6095 9.10649 10.7395 7.06799 10.7395 4.55849C10.7395 2.03849 8.6095 -7.62939e-06 6.001 -7.62939e-06C3.39175 -7.62939e-06 1.26175 2.03849 1.26175 4.55849C1.26175 7.06799 3.39175 9.10649 6.001 9.10649ZM6.001 2.30924C7.28275 2.30924 8.32825 3.31499 8.32825 4.55849C8.32825 5.79149 7.28275 6.79724 6.001 6.79724C4.71925 6.79724 3.67375 5.79149 3.67375 4.55849C3.673 3.31424 4.7185 2.30924 6.001 2.30924Z" fill="#E08641"/>
</svg>
