<svg width="19" height="11" viewBox="0 0 19 11" fill="none" xmlns="http://www.w3.org/2000/svg">
<path fill-rule="evenodd" clip-rule="evenodd" d="M16.3521 6.96054C16.9823 7.57587 17.6476 8.15481 18.2128 8.8322C18.4625 9.13322 18.6989 9.44385 18.8798 9.79319C19.136 10.2898 18.9039 10.8363 18.4587 10.8659L15.6907 10.8647C14.9768 10.9239 14.4073 10.6365 13.9284 10.1484C13.5452 9.75804 13.1903 9.34259 12.8218 8.93907C12.6707 8.77414 12.5126 8.61895 12.3237 8.49628C11.9458 8.25101 11.6178 8.32611 11.4019 8.72021C11.182 9.12104 11.1321 9.56489 11.1105 10.0116C11.0808 10.6634 10.8838 10.8348 10.2291 10.8646C8.82987 10.9306 7.50194 10.7189 6.26834 10.0131C5.18075 9.39079 4.33737 8.51233 3.60331 7.51782C2.17406 5.58129 1.07954 3.45337 0.0958344 1.26584C-0.125591 0.772981 0.0363423 0.508419 0.580136 0.499055C1.48313 0.481513 2.386 0.482762 3.29005 0.497807C3.65706 0.503175 3.90002 0.713676 4.04172 1.06039C4.53027 2.26166 5.12806 3.40455 5.87842 4.46393C6.07825 4.74597 6.28201 5.02801 6.57217 5.22652C6.89316 5.44633 7.13756 5.37348 7.28857 5.0159C7.38439 4.78917 7.42634 4.54496 7.44794 4.30212C7.51948 3.46667 7.52891 2.63266 7.40343 1.80014C7.3264 1.28057 7.03374 0.944216 6.5153 0.845895C6.25073 0.795766 6.29012 0.697321 6.41822 0.546312C6.64071 0.28587 6.84996 0.123749 7.26709 0.123749H10.3953C10.8878 0.220946 10.9972 0.442185 11.0646 0.937723L11.0673 4.41255C11.0619 4.60439 11.1631 5.17365 11.5086 5.30062C11.7852 5.39102 11.9675 5.16978 12.1334 4.99442C12.8824 4.19949 13.4169 3.26004 13.8945 2.28725C14.1064 1.85951 14.2887 1.41528 14.4653 0.971434C14.5961 0.642073 14.8014 0.480015 15.1724 0.487194L18.1832 0.489878C18.2724 0.489878 18.3628 0.491189 18.4492 0.505984C18.9566 0.592444 19.0956 0.810686 18.9389 1.3061C18.692 2.08337 18.2116 2.7311 17.7419 3.38183C17.2398 4.07657 16.7029 4.74753 16.2049 5.44639C15.7475 6.08457 15.7838 6.40625 16.3521 6.96054Z" fill="#597DA3"/>
</svg>
