<svg width="18" height="14" viewBox="0 0 18 14" fill="none" xmlns="http://www.w3.org/2000/svg">
<path d="M17.2984 1.75358C16.6487 0.981211 15.4491 0.666153 13.1581 0.666153H4.84177C2.49834 0.666153 1.27841 1.00153 0.631103 1.82384C0 2.6256 0 3.80692 0 5.4419V8.55817C0 11.7256 0.7488 13.3339 4.84177 13.3339H13.1581C15.1449 13.3339 16.2458 13.0558 16.958 12.3742C17.6884 11.6752 18 10.534 18 8.55817V5.4419C18 3.71768 17.9512 2.52938 17.2984 1.75358ZM11.5561 7.43026L7.77966 9.40393C7.69523 9.44806 7.60291 9.46995 7.5107 9.46995C7.4063 9.46995 7.30214 9.44185 7.20987 9.38599C7.03614 9.28072 6.93006 9.09242 6.93006 8.88931V4.95462C6.93006 4.75186 7.03585 4.56373 7.20923 4.4584C7.38267 4.35308 7.59838 4.34588 7.77832 4.43936L11.5547 6.40031C11.7469 6.50007 11.8675 6.69842 11.8678 6.91482C11.868 7.1314 11.7479 7.33004 11.5561 7.43026Z" fill="#C4302B"/>
</svg>
